<?xml version="1.0" standalone="no"?>
<!DOCTYPE svg PUBLIC "-//W3C//DTD SVG 20010904//EN"
 "http://www.w3.org/TR/2001/REC-SVG-20010904/DTD/svg10.dtd">
<svg version="1.0" xmlns="http://www.w3.org/2000/svg"
 width="726.000000pt" height="182.000000pt" viewBox="0 0 726.000000 182.000000"
 preserveAspectRatio="xMidYMid meet">

<g transform="translate(0.000000,182.000000) scale(0.100000,-0.100000)"
fill="#000000" stroke="none">
<path d="M3240 920 c0 -733 0 -740 20 -740 20 0 20 7 20 740 0 733 0 740 -20
740 -20 0 -20 -7 -20 -740z"/>
<path d="M270 1528 c0 -13 608 -927 652 -980 85 -102 235 -190 375 -222 63
-14 175 -16 904 -16 l831 0 -118 113 c-396 377 -521 491 -571 524 -55 35 -198
93 -230 93 -8 0 -80 62 -160 138 -204 195 -257 238 -348 282 -143 71 -155 72
-587 77 -270 4 -388 2 -388 -6 0 -19 62 -81 109 -109 l46 -27 285 -6 c321 -6
361 -13 491 -80 53 -28 110 -71 186 -142 l110 -102 -428 -3 c-236 -1 -429 -5
-429 -8 0 -12 81 -110 102 -124 19 -13 98 -16 478 -21 509 -7 509 -7 653 -81
59 -31 112 -72 215 -168 75 -70 153 -144 171 -164 l35 -36 -615 0 c-694 0
-695 0 -842 77 -134 71 -184 130 -457 538 -136 203 -260 379 -276 391 -16 11
-44 29 -62 38 -39 20 -132 37 -132 24z"/>
<path d="M3470 1520 c0 -5 9 -10 19 -10 10 0 22 -7 25 -16 8 -20 8 -322 0
-351 -4 -14 -14 -23 -26 -23 -10 0 -17 -4 -14 -9 3 -5 64 -8 134 -7 122 1 131
3 170 28 55 37 72 88 47 142 -11 23 -31 44 -52 54 l-33 16 25 26 c13 14 27 39
31 56 8 41 -27 82 -81 94 -55 13 -245 13 -245 0z m214 -49 c24 -26 24 -91 0
-108 -10 -7 -28 -13 -41 -13 -22 0 -23 4 -23 70 0 67 1 70 23 70 13 0 32 -9
41 -19z m-10 -161 c51 -19 74 -112 36 -150 -22 -22 -60 -26 -78 -8 -7 7 -12
43 -12 90 0 84 3 88 54 68z"/>
<path d="M3860 1521 c0 -5 9 -11 20 -14 19 -5 20 -14 20 -180 0 -97 -3 -182
-6 -191 -3 -9 -15 -16 -27 -16 -11 0 -17 -3 -13 -7 10 -11 206 -12 206 -2 0 4
-10 9 -22 11 -29 4 -36 46 -37 203 -1 143 6 185 30 185 11 0 19 5 19 10 0 6
-38 10 -95 10 -52 0 -95 -4 -95 -9z"/>
<path d="M4139 1383 c-1 -82 -4 -173 -7 -203 -6 -47 -10 -55 -32 -61 -14 -4
-23 -8 -20 -9 15 -7 170 -5 170 2 0 4 -9 8 -20 8 -26 0 -27 4 -35 134 l-7 109
50 -44 c27 -24 93 -83 147 -131 53 -49 103 -88 111 -88 11 0 14 22 14 108 0
60 3 151 7 202 5 78 9 93 25 98 43 11 12 22 -62 22 -44 0 -80 -4 -80 -9 0 -5
10 -11 22 -13 29 -4 36 -31 37 -151 l1 -98 -147 135 c-80 75 -152 136 -160
136 -10 0 -13 -32 -14 -147z"/>
<path d="M4699 1502 c-76 -40 -113 -101 -112 -186 1 -142 91 -216 262 -216 42
0 93 5 114 11 l37 10 0 85 c0 77 2 86 20 91 47 12 13 21 -80 21 -55 0 -100 -4
-100 -9 0 -5 9 -9 20 -9 27 0 42 -40 38 -104 l-3 -51 -40 -3 c-109 -8 -189
147 -141 272 22 58 55 79 122 78 67 0 105 -19 124 -59 8 -18 18 -33 23 -33 4
0 7 26 7 59 0 58 -1 59 -31 65 -17 3 -71 6 -119 6 -77 0 -95 -4 -141 -28z"/>
<path d="M5055 1521 c-3 -5 5 -11 17 -13 18 -2 24 -12 30 -43 9 -52 10 -162 1
-260 -5 -64 -9 -79 -25 -83 -10 -2 -18 -8 -18 -11 0 -10 196 -8 206 2 4 4 -2
7 -12 7 -36 0 -44 20 -44 107 l0 83 85 0 86 0 -3 -92 c-3 -89 -4 -92 -28 -99
-14 -4 -23 -8 -20 -9 16 -7 210 -6 210 1 0 4 -10 9 -22 11 -23 3 -23 5 -26
191 -2 182 -2 189 18 194 48 13 12 23 -80 23 -55 0 -100 -4 -100 -9 0 -5 10
-11 23 -13 20 -3 22 -9 25 -75 l3 -73 -86 0 -86 0 3 73 c3 66 5 72 26 75 12 2
20 8 17 13 -4 5 -48 9 -100 9 -52 0 -96 -4 -100 -9z"/>
<path d="M5706 1330 c-73 -167 -92 -201 -112 -206 -48 -12 -22 -21 56 -21 44
0 80 4 80 9 0 4 -7 8 -15 8 -24 0 -28 24 -11 64 l15 36 64 0 64 0 17 -45 c10
-24 15 -49 12 -53 -3 -5 22 -12 56 -16 86 -9 118 -8 118 4 0 6 -8 10 -19 10
-10 0 -24 6 -30 14 -7 8 -50 99 -95 203 -46 103 -90 189 -97 191 -9 1 -44 -64
-103 -198z m102 -10 l21 -50 -46 0 c-32 0 -44 4 -40 13 2 6 10 29 18 50 7 20
16 37 20 37 3 0 16 -22 27 -50z"/>
<path d="M5975 1484 c-8 -55 -3 -63 19 -29 14 22 24 25 71 25 l55 0 0 -164 c0
-90 -3 -171 -6 -180 -3 -9 -15 -16 -27 -16 -11 0 -17 -3 -13 -7 11 -11 195
-12 202 -2 3 5 -4 9 -16 9 -33 0 -40 38 -40 206 l0 155 58 -3 c48 -3 59 -7 67
-25 16 -37 25 -27 25 27 l0 50 -194 0 -194 0 -7 -46z"/>
<path d="M6396 1499 c-3 -17 -6 -41 -6 -53 1 -19 2 -19 21 7 18 24 27 27 75
27 l54 0 0 -154 c0 -161 -8 -206 -36 -206 -10 0 -14 -3 -10 -7 11 -11 195 -12
202 -2 3 5 -3 9 -13 9 -39 0 -43 18 -43 192 l0 168 46 0 c52 0 84 -14 84 -36
0 -8 5 -12 10 -9 6 3 10 26 10 51 l0 44 -194 0 -193 0 -7 -31z"/>
<path d="M6810 1521 c0 -5 9 -11 20 -14 19 -5 20 -14 20 -192 0 -178 -1 -187
-20 -192 -45 -12 -15 -19 80 -20 55 0 100 4 100 8 0 4 -10 9 -22 11 -23 3 -23
5 -26 191 -2 182 -2 189 18 194 47 12 13 23 -75 23 -52 0 -95 -4 -95 -9z"/>
<path d="M4945 893 l-30 -4 3 -172 c2 -95 8 -185 14 -200 21 -54 39 -57 369
-57 270 0 301 2 295 16 -3 9 -6 24 -6 35 0 17 -8 19 -63 19 -48 0 -68 4 -80
18 -42 46 -23 135 31 147 18 3 40 1 53 -5 17 -10 24 -9 37 4 14 14 10 18 -42
42 -70 32 -112 27 -163 -20 -31 -28 -37 -40 -41 -88 -2 -32 1 -64 7 -77 l12
-22 -153 3 -153 3 -3 183 -2 182 -28 -2 c-15 0 -41 -3 -57 -5z"/>
<path d="M5410 885 c-21 -25 3 -67 37 -63 34 4 52 31 37 56 -15 23 -57 27 -74
7z"/>
<path d="M4328 705 l4 -176 -149 3 -148 3 -3 108 -3 107 -112 0 c-140 0 -185
-17 -218 -81 -44 -87 -7 -197 72 -214 34 -8 33 -7 15 -44 -27 -51 -105 -67
-156 -31 -42 30 -60 87 -60 186 l0 85 -52 -3 -53 -3 2 -99 c2 -124 25 -177 92
-213 37 -19 59 -23 141 -23 84 0 101 3 130 23 49 33 70 66 77 125 l6 52 -42 0
c-58 0 -81 26 -81 89 0 71 26 101 91 101 l49 0 0 -80 c0 -91 14 -130 55 -148
19 -9 138 -12 430 -12 l405 0 0 104 c0 90 -3 107 -21 130 -30 38 -76 59 -134
59 -63 1 -116 -26 -178 -89 l-47 -47 0 131 0 132 -57 0 -58 0 3 -175z m382
-34 c5 -11 10 -47 10 -80 l0 -61 -135 0 c-134 0 -136 0 -125 21 16 29 85 96
123 119 43 27 113 27 127 1z"/>
<path d="M6051 741 l-34 -6 2 -135 c2 -142 -5 -178 -41 -217 -28 -30 -85 -31
-123 -1 -41 32 -55 76 -55 178 l0 90 -56 0 -57 0 5 -99 c8 -167 56 -226 196
-238 105 -10 196 36 224 113 l12 34 403 0 c290 0 409 3 428 12 44 20 55 56 55
173 l0 105 -27 -1 c-16 -1 -41 -4 -57 -8 l-29 -6 -1 -100 -1 -100 -370 -3
c-339 -2 -371 -1 -382 15 -8 11 -13 51 -13 110 0 104 4 99 -79 84z"/>
<path d="M5872 678 c-28 -28 -3 -72 39 -66 30 4 47 33 33 56 -14 21 -55 27
-72 10z"/>
<path d="M6900 386 c-16 -20 -9 -56 13 -70 39 -24 79 44 41 71 -23 17 -39 16
-54 -1z"/>
<path d="M3610 231 c-15 -29 -13 -39 15 -57 24 -16 27 -16 45 1 23 20 26 45 8
63 -18 18 -56 14 -68 -7z"/>
<path d="M3722 238 c-19 -19 -14 -46 13 -64 24 -16 27 -16 45 1 34 31 19 75
-25 75 -12 0 -26 -5 -33 -12z"/>
</g>
</svg>
